<?xml version="1.0" encoding="UTF-8" standalone="no"?>
<svg width="512" height="512" viewBox="0 0 512 512" fill="none" xmlns="http://www.w3.org/2000/svg">
  <!-- WhatsApp-style icon background -->
  <rect width="512" height="512" rx="80" fill="#00a884" />
  
  <!-- Chat Bubble Icon in white -->
  <path d="M393.654 118.346C352.201 76.8926 297.016 54 238.5 54C117.831 54 20 151.831 20 272.5C20 307.419 29.2373 341.438 46.8164 371.393L20 458L108.607 431.684C137.062 447.763 169.581 456 202.5 456H238.5C359.169 456 457 358.169 457 237.5C457 179.484 435.107 124.299 393.654 82.846V118.346Z" fill="white"/>
  
  <!-- Inner area for contrast -->
  <path d="M348.654 158.346C319.201 128.893 280.016 114 238.5 114C157.831 114 90 181.831 90 262.5C90 287.419 96.2373 311.438 108.816 331.393L90 388L148.607 369.684C167.562 381.263 190.581 387 214 387H238.5C319.169 387 387 319.169 387 238.5C387 196.984 372.607 157.799 343.154 128.346L348.654 158.346Z" fill="#00a884"/>
  
  <!-- Message Bubble / Speech icon in white -->
  <path d="M256 190C243.402 190 231.033 193.761 220.666 200.791C210.299 207.82 202.431 217.806 198.232 229.404C194.033 241.001 193.684 253.597 197.234 265.404C200.784 277.211 208.057 287.59 218.059 294.941L218 324L248.059 323.941C255.41 333.943 265.789 341.216 277.596 344.766C289.403 348.316 301.999 347.967 313.596 343.768C325.194 339.569 335.18 331.701 342.209 321.334C349.239 310.967 353 298.598 353 286C353 269.222 346.31 253.097 334.941 241.059C323.573 229.022 307.769 222 291 222H256V190Z" fill="white"/>
</svg>